<?xml version="1.0" encoding="utf-8"?>
<!-- Generator: Adobe Illustrator 21.0.2, SVG Export Plug-In . SVG Version: 6.00 Build 0)  -->
<svg version="1.1" id="Layer_1" xmlns="http://www.w3.org/2000/svg" xmlns:xlink="http://www.w3.org/1999/xlink" x="0px" y="0px"
	 viewBox="0 0 149 140.9" style="enable-background:new 0 0 149 140.9;" xml:space="preserve">
<style type="text/css">
	.st0{fill:#D6E7B2;}
	.st1{fill:#654D53;}
</style>
<title>arachne-logo</title>
<g>
	<polygon class="st0" points="55.7,130.3 109.4,10.5 113.3,12.2 59.6,132 	"/>
	<polygon class="st0" points="10.8,61.5 14.1,58.8 79,137 75.6,139.7 	"/>
	<path class="st0" d="M135.5,97.8c-35.2,0-63.8-28-63.8-62.7c0-11.1,3-21.9,8.6-31.5L84,5.8c-16.5,27.9-6.8,63.7,21.6,79.8
		c9.1,5.2,19.3,7.9,29.8,7.9c1.5,0,2.9,0,4.4-0.2l0.3,4.2C138.6,97.8,137,97.8,135.5,97.8z"/>
	<path class="st0" d="M141.3,90.9c-3-6.7-6.8-13.1-11.2-19c-24.7-33-67.4-47.7-107.6-37l-0.6-2c49.2-13,100.8,11.3,121.2,57.2
		L141.3,90.9z"/>
	<path class="st1" d="M24.2,108.2l-6.4-2.5c18.9-47.8,70.6-74.8,121.5-63.6l-1.5,6.6c-7.1-1.6-14.4-2.4-21.7-2.4
		C75.5,46.4,39,70.9,24.2,108.2z"/>
	<path class="st1" d="M24.6,108.9L17,106l0.2-0.6c19-48.1,71-75.2,122.2-64l0.6,0.1l-1.8,7.8l-0.6-0.1c-7.1-1.6-14.3-2.4-21.5-2.4
		c-40.4,0-76.7,24.4-91.3,61.4L24.6,108.9z M18.6,105.4l5.3,2C41.8,63,89.8,37.9,137.3,48l1.2-5.5c-7.4-1.6-14.9-2.4-22.5-2.4
		C73.1,40.2,34.4,66.1,18.6,105.4L18.6,105.4z"/>
	<path class="st0" d="M48.3,130.7l-2.5,0.5c-6.5-33.8,16.1-66.5,50.5-72.9c17.1-3.2,34.8,0.7,48.9,10.6l-1.4,2
		c-27.3-19.3-65.4-13.3-85.1,13.5C48.9,97.7,45.2,114.5,48.3,130.7z"/>
	<path class="st1" d="M61.5,63.2l-20.2-48l-7.5,3L44,42.6L7.5,128.6c-0.9,2.2-2.4,2.6-5.2,2.6H0v6.6h2.4c7.9,0,10.3-1.5,13.1-8.2
		l27.6-65.2c0.1-0.2,2-4.7,2.2-5.4c0.2-0.4,1.5-4.2,2.4-6.9l0.2-0.5l3.3,7.9l3.6,8.6C56.9,66.4,59.2,64.8,61.5,63.2z"/>
	<path class="st1" d="M93.9,131.2c-2.1,0-3.5-0.2-4.4-1.3L62.9,66.5c-2,1.5-4.6,3.4-6.6,5.2l1.7,4.2l0.7,1.7L82.9,135l0.7-0.3
		c2.1,2.4,4.9,3.1,10.2,3.1h2.4v-6.6L93.9,131.2L93.9,131.2z"/>
	<path class="st0" d="M33.3,121.6l-2.8-3.3c27.3-22.2,65.5-26,96.8-9.7l-2,3.7C95.6,96.9,59.3,100.5,33.3,121.6z"/>
	<path class="st1" d="M77.3,0C37.7,0,5.6,31.5,5.6,70.4c0,11.6,2.9,23,8.5,33.3L19,92C7,60.4,23.3,25.1,55.6,13.3
		s68.1,4.2,80.1,35.9c12,31.6-4.3,66.9-36.5,78.7c-30.3,11.1-64.3-2.4-78.1-31.1l-4.7,11c20.9,33,65.2,43.1,98.8,22.5
		s43.9-64,22.9-97C125,12.5,102,0,77.3,0z"/>
</g>
</svg>
